PathFileType	4	(X/Y/Z)	C:/Users/beibeiliu/ov580/test_trc/User3\sequence.11_training_dense_left.trc
DataRate	CameraRate	NumFrames	NumMarkers	Units	OrigDataRate	OrigDataStartFrame	OrigNumFrames
120	120	17	19	mm	120	50	196
Frame#	Time	ThumbCMC			ThumbMCP			ThumbIP			ThumbTip			IndexMCP			IndexPIP			IndexTip			MiddleMCP			MiddlePIP			MiddleTip			RingMCP			RingPIP			RingTip			PinkyMCP			PinkyPIP			PinkyTip			BackHand1			BackHand2			BackHand3	
		X0	Y0	Z0	X1	Y1	Z1	X2	Y2	Z2	X3	Y3	Z3	X4	Y4	Z4	X5	Y5	Z5	X6	Y6	Z6	X7	Y7	Z7	X8	Y8	Z8	X9	Y9	Z9	X10	Y10	Z10	X11	Y11	Z11	X12	Y12	Z12	X13	Y13	Z13	X14	Y14	Z14	X15	Y15	Z15	X16	Y16	Z16	X17	Y17	Z17	X18	Y18	Z18	
49	0.408333	-159.237	-32.5336	13.483	-146.057	-32.949	-5.02644	-126.281	-29.7218	-27.3777	-110.342	-28.471	-42.8706	-176.784	-45.251	-64.3459	-169.716	-49.6046	-86.9134	-166.508	-49.9611	-108.16	-204.719	-48.464	-66.3495	-205.097	-56.4106	-90.6233	-208.219	-61.0381	-122.43	-227.572	-55.2212	-54.2471	-232.141	-61.7029	-76.9872	-240.903	-67.0906	-99.4044	-240.503	-61.0695	-31.3136	-251.298	-69.0829	-50.4237	-268.524	-72.877	-67.5493	-222.602	-30.7939	-8.51194	-218.746	-23.4411	19.8173	-190.558	-21.9764	1.42509	
50	0.416667	-160.195	-30.9812	19.3466	-143.412	-29.3335	-4.45229	-125.298	-27.6278	-25.0319	-107.519	-24.2567	-37.5891	-172.449	-43.065	-58.5943	-169.633	-46.8282	-85.854	-162.306	-46.7968	-105.823	-202.24	-47.8832	-65.4455	-201.695	-54.278	-91.1669	-202.923	-58.5205	-118.56	-222.997	-54.0604	-53.1185	-231.001	-61.6921	-77.4607	-236.285	-67.0331	-102.995	-241.804	-62.9286	-35.6642	-252.553	-69.5536	-49.0353	-261.485	-72.8918	-67.6299	-221.338	-30.7314	-6.33188	-222.694	-22.4345	18.8593	-191.049	-20.3783	1.54105	
51	0.425	-160.072	-28.2995	20.2361	-140.926	-24.4022	-0.765274	-125.547	-23.2373	-24.0549	-107.193	-17.6792	-39.7303	-172.408	-40.4636	-60.7704	-165.035	-44.0607	-84.2413	-161.134	-44.1964	-109.162	-199.142	-47.0177	-65.0031	-195.453	-52.0632	-88.0774	-199.288	-57.4946	-123.065	-218.231	-54.6922	-55.1104	-223.368	-61.5253	-78.4855	-232.187	-69.0866	-99.8753	-239.815	-65.1547	-32.9695	-247.692	-73.7048	-54.2354	-254.39	-80.1635	-72.2173	-219.49	-32.7803	-8.30293	-224.574	-25.6426	20.1804	-189.695	-18.4684	0.981061	
52	0.433333	-166.355	-24.7172	16.7333	-148.306	-19.593	-0.979906	-127.933	-10.8061	-29.6464	-113.502	-7.94622	-41.2898	-174.946	-39.5572	-60.0296	-166.656	-42.6626	-83.1019	-161.855	-43.9441	-108.524	-199.757	-49.9425	-68.766	-193.705	-53.832	-88.9206	-190.357	-59.6121	-120.637	-219.228	-61.6975	-52.22	-218.785	-67.6177	-77.1774	-225.022	-76.9094	-101.906	-234.395	-73.675	-34.6009	-239.783	-84.1189	-55.1738	-249.887	-93.307	-74.5554	-220.159	-38.4655	-9.57543	-228.374	-28.3883	21.3329	-193.488	-18.8304	-1.39141	
53	0.441667	-171.133	-14.9509	16.8895	-156.172	-6.48142	-9.28719	-140.008	2.39337	-33.2299	-128.266	6.28808	-45.4866	-176.129	-37.4549	-60.4994	-166.43	-40.0434	-84.9946	-161.402	-40.4637	-105.876	-192.946	-52.7639	-68.7818	-189.435	-60.193	-92.4096	-186.115	-67.2213	-120.046	-207.701	-68.071	-55.4653	-209.11	-79.0604	-74.5002	-209.085	-86.7495	-97.6717	-220.781	-82.8257	-34.9455	-221.678	-95.9126	-53.7763	-227.083	-107.532	-70.9343	-224.937	-45.4099	-7.13937	-229.622	-36.5183	17.506	-199.531	-18.773	-3.8938	
54	0.45	-182.787	-7.78185	6.67888	-171.735	1.42786	-13.7044	-159.188	12.2676	-40.7012	-149.063	18.8141	-54.6912	-178.363	-38.0951	-64.5768	-168.737	-39.9085	-90.9963	-164.075	-41.5926	-109.567	-190.727	-62.2003	-67.5253	-179.915	-67.017	-92.6858	-174.414	-73.192	-120.474	-198.077	-80.3374	-52.2733	-193.708	-92.0169	-74.6308	-188.691	-99.134	-95.8111	-203.227	-95.4958	-34.9183	-199.28	-108.385	-49.3195	-196.562	-122.175	-66.2295	-220.957	-57.2881	-11.1248	-228.788	-49.9658	17.3977	-206.616	-23.5981	-6.19019	
55	0.458333	-193.861	-8.85748	2.94985	-185.618	3.96944	-23.1402	-176.457	11.2572	-47.5137	-170.543	26.9757	-63.8824	-181.248	-41.417	-65.4388	-169.845	-43.203	-90.675	-164.083	-45.6442	-113.396	-184.747	-64.6548	-68.306	-173.907	-69.735	-92.6695	-165.771	-79.7705	-115.655	-187.647	-81.4289	-50.9539	-178.982	-96.6183	-74.3266	-172.171	-105.412	-93.0288	-188.999	-100.949	-29.8359	-180.683	-111.229	-43.2276	-172.535	-132.373	-59.602	-214.357	-63.4207	-11.6086	-225.796	-56.1228	12.1822	-215.854	-29.9198	-8.356	
56	0.466667	-205.747	-10.1598	-3.94817	-200.834	1.29923	-28.2111	-196.154	11.7261	-54.7653	-192.42	23.3009	-68.7773	-184.634	-42.0863	-70.9737	-173.534	-41.7606	-93.1545	-166.704	-43.9935	-114.392	-182.768	-68.2248	-71.0883	-169.783	-74.2246	-93.6799	-157.626	-82.8296	-119.217	-181.557	-83.9192	-50.3967	-169.436	-97.0817	-73.216	-159.605	-104.464	-95.2217	-178.856	-97.4474	-26.6622	-167.573	-110.34	-39.3477	-154.838	-129.47	-53.224	-211.17	-74.9518	-14.8227	-227.017	-66.4902	14.1007	-218.042	-36.7549	-14.4837	
57	0.475	-219.713	-15.1429	-4.69404	-217.24	-6.15018	-30.6058	-214.222	2.46735	-60.8384	-215.568	14.2911	-76.9587	-189.475	-44.3839	-76.0942	-179.137	-45.7482	-97.3728	-170.988	-45.5744	-120.348	-182.632	-71.2783	-71.5558	-170.507	-73.4696	-90.9844	-153.155	-79.5317	-121.287	-175.473	-85.2667	-54.8959	-164.664	-93.4032	-72.7673	-152.22	-101.499	-90.1509	-168.795	-96.1476	-25.5946	-152.956	-109.324	-37.0244	-141.744	-122.393	-47.4148	-207.24	-77.6925	-11.7962	-225.022	-70.005	10.289	-225.887	-46.4685	-14.6803	
58	0.483333	-230.155	-16.2141	-8.59897	-226.082	-9.80195	-34.079	-229.094	0.411486	-59.7121	-232.325	10.8203	-80.2742	-194.374	-46.0666	-74.9174	-183.787	-44.8472	-97.5002	-173.608	-45.7772	-124.34	-182.768	-70.4871	-69.7277	-167.235	-71.9815	-96.6138	-153.064	-75.2431	-122.996	-174.346	-83.6397	-51.2993	-159.502	-91.8542	-71.3875	-147.688	-98.149	-89.0977	-163.525	-92.8227	-25.2903	-148.573	-99.9235	-36.2805	-131.993	-114.172	-47.6414	-206.711	-76.6448	-16.7817	-222.765	-74.494	12.1627	-227.76	-52.3251	-17.2933	
59	0.491667	-236.296	-19.11	-8.83337	-233.089	-12.7532	-35.3255	-236.839	-3.90874	-61.6602	-240.492	5.05051	-82.4033	-196.864	-44.6833	-79.8181	-187.774	-40.6632	-102.998	-177.946	-43.5749	-120.517	-181.146	-69.986	-72.7547	-170.266	-68.204	-93.685	-152.261	-72.5476	-119.309	-170.471	-81.5547	-53.7888	-157.242	-85.851	-73.2631	-142.162	-96.1417	-92.4494	-161.759	-86.3289	-24.0269	-141.186	-95.9806	-37.0126	-128.084	-103.377	-46.1472	-205.565	-80.4165	-10.4792	-221.335	-78.6811	12.0232	-231.61	-52.785	-18.9323	
60	0.5	-242.205	-24.3654	-9.55148	-239.54	-18.5946	-35.1472	-245.624	-9.80634	-66.4134	-249.947	-2.99036	-82.1614	-200.511	-46.979	-73.965	-190.578	-44.4982	-98.7743	-179.023	-44.8353	-124.758	-184.366	-65.5011	-73.178	-170.032	-65.8018	-92.1496	-155.368	-66.4711	-123.935	-169.88	-77.9476	-52.612	-154.417	-82.8601	-70.399	-142.164	-86.8976	-90.0395	-160.189	-81.0989	-26.3315	-141.132	-88.006	-35.0263	-126.592	-98.1543	-45.489	-203.487	-78.9433	-15.3946	-221.693	-77.941	12.9318	-228.986	-58.9535	-15.7245	
61	0.508333	-246.769	-28.8892	-11.7995	-247.874	-21.8947	-36.6646	-254.559	-14.6025	-63.6096	-262.663	-8.04268	-83.1183	-201.09	-48.8445	-74.276	-192.182	-44.9647	-100.331	-185.38	-41.1724	-124.606	-182.344	-63.6551	-74.0066	-167.675	-63.272	-95.7406	-154.932	-62.7949	-123.22	-166.986	-73.9268	-50.0051	-154.225	-75.9449	-71.1198	-136.753	-82.2052	-90.2708	-155.351	-77.4939	-25.5086	-138.772	-80.0936	-37.5911	-123.592	-85.222	-49.4527	-199.616	-78.5458	-14.4529	-216.768	-78.8443	10.6899	-235.17	-60.4054	-17.4865	
62	0.516667	-250.917	-32.8058	-10.7906	-252.638	-27.0085	-39.804	-259.036	-20.4397	-62.4613	-267.775	-15.3905	-84.7713	-203.523	-46.8376	-78.2733	-196.893	-42.6408	-100.113	-184.759	-40.2902	-125.503	-183.944	-60.5485	-72.5175	-170.596	-57.4595	-98.0783	-154.69	-58.7427	-121.269	-166.251	-68.5581	-52.6427	-155.554	-69.3859	-71.2213	-135.869	-73.6002	-92.2237	-156.669	-69.8676	-26.1565	-138.324	-71.5871	-37.0587	-120.85	-78.4196	-49.2803	-203.987	-77.0632	-12.1803	-217.84	-77.7272	10.3292	-233.26	-62.3498	-17.4388	
63	0.525	-252.826	-36.3664	-11.1906	-257.691	-30.5591	-37.696	-264.448	-25.2663	-63.3642	-272.563	-19.5054	-84.3738	-206.995	-45.2029	-77.5124	-198.591	-40.4801	-102.913	-190.268	-37.2263	-126.588	-183.423	-58.239	-73.6807	-173.187	-53.9153	-95.2884	-158.747	-50.5793	-123.743	-170.275	-63.6845	-51.2403	-155.108	-63.6852	-72.9142	-136.841	-66.2587	-90.5045	-160.703	-63.7727	-26.9716	-139.618	-64.5506	-36.1944	-123.262	-68.2197	-52.2409	-203.503	-74.3518	-14.2196	-214.653	-81.7928	13.5216	-234.283	-64.7792	-20.1768	
64	0.533333	-253.062	-38.9149	-11.5033	-262.032	-30.7438	-34.6846	-271.688	-27.069	-66.6569	-276.948	-20.5997	-82.5829	-208.815	-44.5141	-79.55	-202.127	-39.008	-104.73	-197.031	-34.4344	-124.784	-188.565	-55.6141	-74.9076	-173.477	-51.1289	-98.023	-159.089	-47.8505	-124.15	-168.965	-61.9421	-53.5067	-156.625	-60.5631	-71.8693	-139.79	-60.085	-93.4181	-160.995	-59.0932	-29.6955	-141.226	-60.0067	-39.0083	-122.792	-64.1376	-47.508	-202.236	-73.8484	-14.1802	-215.266	-78.1675	11.5046	-235.178	-62.7151	-18.5731	
65	0.541667	-256.161	-38.1935	-11.0786	-263.49	-32.3308	-39.3922	-273.501	-25.7307	-60.469	-282.477	-21.8352	-80.6881	-214.996	-43.1153	-75.6867	-204.819	-37.1847	-103.043	-197.591	-33.8058	-127.703	-191.109	-53.174	-75.4581	-174.85	-49.2596	-96.869	-161.499	-46.0755	-120.297	-174.174	-56.3208	-57.1182	-158.228	-56.0696	-75.0584	-140.741	-57.081	-92.9025	-160.203	-55.9006	-32.2486	-141.17	-55.7534	-37.5563	-126.939	-59.3393	-53.4316	-204.09	-70.9983	-12.7814	-212.939	-79.4461	9.41455	-235.093	-64.8738	-16.8444	
